<svg xmlns="http://www.w3.org/2000/svg" viewBox="0 0 300 113"><title>appsotre</title><rect x="4.05" y="12.22" width="291.21" height="88.56" rx="11.26"/><path d="M22.13,48.41C17.41,56.6,20.41,69,25.64,76.59c2.6,3.77,5.24,7.15,8.86,7.15h.21a10.87,10.87,0,0,0,4.11-1.1,11.14,11.14,0,0,1,4.87-1.15,10.81,10.81,0,0,1,4.64,1.11,9.66,9.66,0,0,0,4.44,1.07c4.08-.08,6.58-3.73,8.78-7a30.81,30.81,0,0,0,3.85-7.88h0a.47.47,0,0,0-.25-.56h0a11.67,11.67,0,0,1-7.08-10.69,12,12,0,0,1,5.68-10h0a.52.52,0,0,0,.2-.3.48.48,0,0,0-.07-.35,13.24,13.24,0,0,0-10.4-5.64,6.76,6.76,0,0,0-.9,0,18.25,18.25,0,0,0-6.53,1.63,10.71,10.71,0,0,1-3.12.94,10.25,10.25,0,0,1-3.24-1A15.64,15.64,0,0,0,34,41.28h-.15A14,14,0,0,0,22.13,48.41Z" style="fill:#fff"/><path d="M53.53,27.86a12.76,12.76,0,0,0-8.42,4.33,11.72,11.72,0,0,0-3,8.86.47.47,0,0,0,.42.4h.59A10.77,10.77,0,0,0,51,37.39a12.58,12.58,0,0,0,3-9.12A.47.47,0,0,0,53.53,27.86Z" style="fill:#fff"/><g style="isolation:isolate"><g style="isolation:isolate"><path d="M99.12,34.55a6.92,6.92,0,0,1-7.18,6.92H86.41V27.63H92A6.88,6.88,0,0,1,99.12,34.55Zm-1.6,0A5.43,5.43,0,0,0,92,29.09H88V40h4A5.38,5.38,0,0,0,97.52,34.57Z" style="fill:#fff"/></g><g style="isolation:isolate"><path d="M111.3,36.25a5.28,5.28,0,0,1-10.56,0,5.28,5.28,0,0,1,10.56,0Zm-9,0a3.74,3.74,0,1,0,7.48,0,3.74,3.74,0,1,0-7.48,0Z" style="fill:#fff"/></g><g style="isolation:isolate"><path d="M113.49,31.07l3.09,8.84,3-8.84h1.62l3.07,8.84,3-8.84h1.61l-3.86,10.4h-1.6L120.41,33l-3,8.52h-1.61l-3.89-10.4Z" style="fill:#fff"/></g><g style="isolation:isolate"><path d="M140.44,35.06v6.41H138.9v-6a2.72,2.72,0,0,0-3-3,3.41,3.41,0,0,0-3.5,3.4v5.58h-1.54V31.07h1.54v2.29a4.11,4.11,0,0,1,4-2.35C139,31,140.44,32.53,140.44,35.06Z" style="fill:#fff"/><path d="M145.52,26.8V41.47H144V26.8Z" style="fill:#fff"/><path d="M158.89,36.25a5.28,5.28,0,1,1-10.56,0,5.28,5.28,0,0,1,10.56,0Zm-9,0a3.74,3.74,0,1,0,7.47,0,3.74,3.74,0,1,0-7.47,0Z" style="fill:#fff"/><path d="M168.06,41.47V39.85a4.49,4.49,0,0,1-3.82,1.68c-2.15,0-3.54-1.36-3.54-3.15s1.45-3,3.9-3H168v-.65c0-1.53-1-2.46-2.79-2.46a5.67,5.67,0,0,0-3.3,1.21l-.65-1.09a7,7,0,0,1,4.25-1.4c2.57,0,4,1.36,4,3.58l0,6.88Zm0-3.58V36.63H164.8c-1.74,0-2.65.53-2.65,1.7s.93,1.91,2.39,1.91A3.35,3.35,0,0,0,168,37.89Z" style="fill:#fff"/><path d="M182.57,26.8V41.47H181V39.24A4.36,4.36,0,0,1,177,41.55a5,5,0,0,1-5-5.3A4.91,4.91,0,0,1,177,31,4.37,4.37,0,0,1,181,33.32V26.8ZM181,36.29a3.77,3.77,0,1,0-7.54,0,3.77,3.77,0,1,0,7.54,0Z" style="fill:#fff"/><path d="M201.87,36.25a5.28,5.28,0,0,1-10.56,0,5.28,5.28,0,0,1,10.56,0Zm-9,0a3.74,3.74,0,1,0,7.47,0,3.74,3.74,0,1,0-7.47,0Z" style="fill:#fff"/><path d="M214.1,35.06v6.41h-1.54v-6a2.72,2.72,0,0,0-2.95-3,3.42,3.42,0,0,0-3.5,3.4v5.58h-1.54V31.07h1.54v2.29a4.13,4.13,0,0,1,4-2.35C212.64,31,214.1,32.53,214.1,35.06Z" style="fill:#fff"/><path d="M228.85,40.76a4.2,4.2,0,0,1-2.35.77c-1.53,0-2.65-.89-2.65-3v-6h-1.51V31.38h1.51V28.66h1.52v2.72h3.3v1.21h-3.3v5.74c0,1.26.49,1.78,1.38,1.78a3.67,3.67,0,0,0,1.67-.54Z" style="fill:#fff"/><path d="M240.83,35.06v6.41h-1.54v-6a2.72,2.72,0,0,0-2.95-3c-2.21,0-3.52,1.6-3.52,3.88v5.1h-1.54V26.8h1.54v6.6A4.09,4.09,0,0,1,236.88,31C239.37,31,240.83,32.53,240.83,35.06Z" style="fill:#fff"/><path d="M253.25,36.84h-8.51a3.68,3.68,0,0,0,3.78,3.4,4.35,4.35,0,0,0,3.22-1.32l.85.89a5.5,5.5,0,0,1-4.19,1.72,5,5,0,0,1-5.18-5.26A5,5,0,0,1,248.38,31C251.74,31,253.41,33.32,253.25,36.84Zm-1.39-1.22a3.29,3.29,0,0,0-3.48-3.33,3.52,3.52,0,0,0-3.64,3.33Z" style="fill:#fff"/></g></g><g style="isolation:isolate"><g style="isolation:isolate"><path d="M100.7,72.94h-11L87.9,77.53H82.39L92.66,53.88h5.51l10.1,23.65h-5.71ZM99,68.65l-3.72-9.19-3.75,9.19Z" style="fill:#fff"/><path d="M130.29,68.54c0,5.51-3.34,9.19-8.44,9.19A6.89,6.89,0,0,1,116,74.9v9.18h-5.2V59.36H116V62a6.75,6.75,0,0,1,5.75-2.83C126.85,59.19,130.29,62.94,130.29,68.54ZM125,68.38c0-2.91-1.82-5-4.49-5s-4.53,2.06-4.53,5,1.86,5,4.53,5S125,71.35,125,68.38Z" style="fill:#fff"/><path d="M153.4,68.54c0,5.51-3.34,9.19-8.44,9.19a6.89,6.89,0,0,1-5.85-2.83v9.18h-5.2V59.36h5.2V62a6.75,6.75,0,0,1,5.75-2.83C150,59.19,153.4,62.94,153.4,68.54Zm-5.27-.16c0-2.91-1.82-5-4.49-5s-4.53,2.06-4.53,5,1.86,5,4.53,5S148.13,71.35,148.13,68.38Z" style="fill:#fff"/><path d="M175.3,58.21c-1.79,0-3,.64-3,1.92,0,4.36,12.6,1.93,12.57,10.44,0,4.63-4,7.13-9.26,7.13A16.62,16.62,0,0,1,165.16,74l2.13-4.36a14,14,0,0,0,8.38,3.55c2.19,0,3.51-.81,3.51-2.26,0-4.46-12.6-1.86-12.6-10.24,0-4.29,3.68-7,9.16-7a16.9,16.9,0,0,1,9,2.56l-2.06,4.43A16.43,16.43,0,0,0,175.3,58.21Z" style="fill:#fff"/></g><g style="isolation:isolate"><path d="M199.76,76.52A9.75,9.75,0,0,1,195,77.77c-3.24,0-5.71-1.86-5.71-5.61V63.75h-2.53V60.17h2.53v-5h5.17v5h4.93v3.61h-4.93v7.5c0,1.52.64,2.13,1.76,2.1a6.08,6.08,0,0,0,2.43-.68Z" style="fill:#fff"/></g><g style="isolation:isolate"><path d="M220.7,68.44c0,5.54-3.92,9.29-9.73,9.29s-9.76-3.75-9.76-9.29,3.92-9.25,9.76-9.25S220.7,62.87,220.7,68.44Zm-14.29.07c0,3,1.86,5,4.56,5s4.53-2,4.53-5-1.86-5-4.53-5S206.41,65.54,206.41,68.51Z" style="fill:#fff"/><path d="M235.36,59.15v4.9c-3.71-.34-6,1.66-6,4.73v8.75h-5.2V59.36h5.2v3.27A6.62,6.62,0,0,1,235.36,59.15Z" style="fill:#fff"/><path d="M254.92,70h-13a4.65,4.65,0,0,0,4.7,3.65,6.44,6.44,0,0,0,4.59-1.93l2.74,2.77a10.13,10.13,0,0,1-7.77,3.21c-5.81,0-9.49-3.71-9.49-9.22s3.81-9.32,9.35-9.32C252.39,59.19,255.36,63.41,254.92,70ZM250.06,67a3.8,3.8,0,0,0-4-4c-2.3,0-3.85,1.56-4.26,4Z" style="fill:#fff"/></g></g></svg>