<svg xmlns="http://www.w3.org/2000/svg" viewBox="0 0 300 113"><title>appsotre</title><rect x="4.05" y="12.22" width="291.21" height="88.56" rx="11.26"/><path d="M22.13,48.41C17.41,56.6,20.41,69,25.64,76.59c2.6,3.77,5.24,7.15,8.86,7.15h.21a10.94,10.94,0,0,0,4.11-1.1,11.22,11.22,0,0,1,4.87-1.15,10.73,10.73,0,0,1,4.64,1.11,9.65,9.65,0,0,0,4.44,1.07c4.08-.08,6.58-3.73,8.78-7a30.66,30.66,0,0,0,3.85-7.88l0,0a.46.46,0,0,0-.25-.56l0,0a11.67,11.67,0,0,1-7.08-10.69,12,12,0,0,1,5.68-10l0,0a.52.52,0,0,0,.2-.3.49.49,0,0,0-.07-.35,13.22,13.22,0,0,0-10.4-5.64,8.88,8.88,0,0,0-.9,0,18.23,18.23,0,0,0-6.53,1.63,10.6,10.6,0,0,1-3.12.94,10.23,10.23,0,0,1-3.24-1A15.6,15.6,0,0,0,34,41.28h-.15A14,14,0,0,0,22.13,48.41Z" style="fill:#fff"/><path d="M53.53,27.86a12.75,12.75,0,0,0-8.42,4.33c-1.77,2-3.48,5.43-3,8.86a.47.47,0,0,0,.42.4l.59,0A10.78,10.78,0,0,0,51,37.39a12.58,12.58,0,0,0,3-9.12A.47.47,0,0,0,53.53,27.86Z" style="fill:#fff"/><text transform="translate(84.31 41.47)" style="font-size:19.77016830444336px;fill:#fff;font-family:Montserrat-Light, Montserrat;font-weight:300">D<tspan x="15.6" y="0" style="letter-spacing:-0.016992141636168964em">o</tspan><tspan x="27.48" y="0" style="letter-spacing:0.008002113212381897em">w</tspan><tspan x="44.72" y="0">nload on the</tspan></text><text transform="translate(82.49 77.53)" style="font-size:33.78536605834961px;fill:#fff;font-family:Montserrat-SemiBold, Montserrat;font-weight:600">App S<tspan x="103.52" y="0" style="letter-spacing:-0.003988875679702587em">t</tspan><tspan x="117.77" y="0">ore</tspan></text></svg>