<svg xmlns="http://www.w3.org/2000/svg" viewBox="0 0 112.47 22.12"><title>buttondescgar-25</title><rect x="31.18" y="6.44" width="53.29" height="9.51" rx="3.89" style="fill:#eccc62"/><g style="isolation:isolate"><g style="isolation:isolate"><path d="M47.61,12.73V9.63h.94a1.27,1.27,0,0,1,.94.38,1.32,1.32,0,0,1,.37,1v.4a1.3,1.3,0,0,1-.37,1,1.27,1.27,0,0,1-.94.38Zm.25-2.88v2.67h.69a1,1,0,0,0,.76-.33,1.13,1.13,0,0,0,.3-.81V11a1.13,1.13,0,0,0-.3-.81,1,1,0,0,0-.76-.32Z"/><path d="M51.35,12.78a.92.92,0,0,1-.72-.32,1.16,1.16,0,0,1-.28-.81v-.12a1.18,1.18,0,0,1,.28-.82.88.88,0,0,1,.7-.32.83.83,0,0,1,.65.26,1.1,1.1,0,0,1,.23.73v.2H50.6v.07a1,1,0,0,0,.2.65.68.68,0,0,0,.55.26,1,1,0,0,0,.39-.07A.67.67,0,0,0,52,12.3l.11.18a1,1,0,0,1-.32.21A1.09,1.09,0,0,1,51.35,12.78Zm0-2.18a.6.6,0,0,0-.48.21.88.88,0,0,0-.22.54H52v0a.76.76,0,0,0-.16-.51A.57.57,0,0,0,51.33,10.6Z"/><path d="M54.1,12.14a.35.35,0,0,0-.13-.28,1.09,1.09,0,0,0-.48-.2,1.62,1.62,0,0,1-.61-.23.5.5,0,0,1-.2-.41.58.58,0,0,1,.22-.45.92.92,0,0,1,.59-.18.94.94,0,0,1,.62.19.61.61,0,0,1,.22.48h-.24a.45.45,0,0,0-.17-.33.76.76,0,0,0-.85,0,.38.38,0,0,0-.14.29.34.34,0,0,0,.12.26,1.13,1.13,0,0,0,.48.18,1.57,1.57,0,0,1,.62.25.52.52,0,0,1,.2.43.57.57,0,0,1-.23.47,1,1,0,0,1-.62.18,1,1,0,0,1-.65-.21.55.55,0,0,1-.23-.47h.24a.44.44,0,0,0,.2.36.9.9,0,0,0,.44.11.72.72,0,0,0,.44-.12A.37.37,0,0,0,54.1,12.14Z"/><path d="M55.78,12.56a.69.69,0,0,0,.44-.15.48.48,0,0,0,.19-.4h.22v0a.66.66,0,0,1-.25.53,1,1,0,0,1-.61.22.85.85,0,0,1-.71-.33,1.29,1.29,0,0,1-.26-.83v-.09a1.28,1.28,0,0,1,.26-.82.84.84,0,0,1,.71-.32.89.89,0,0,1,.62.22.76.76,0,0,1,.24.59h-.23a.53.53,0,0,0-.19-.44.62.62,0,0,0-.44-.17.61.61,0,0,0-.54.27,1.24,1.24,0,0,0-.17.66v.09a1.23,1.23,0,0,0,.17.67A.61.61,0,0,0,55.78,12.56Z"/><path d="M58.64,12.73a2.11,2.11,0,0,1,0-.21,1.1,1.1,0,0,1,0-.18.83.83,0,0,1-.33.31,1,1,0,0,1-.49.13.79.79,0,0,1-.53-.18.69.69,0,0,1-.18-.49.57.57,0,0,1,.27-.5,1.16,1.16,0,0,1,.7-.2h.56v-.28a.53.53,0,0,0-.15-.39A.66.66,0,0,0,58,10.6a.65.65,0,0,0-.43.13.4.4,0,0,0-.16.32h-.24a.56.56,0,0,1,.23-.46.91.91,0,0,1,.61-.19.93.93,0,0,1,.61.19.69.69,0,0,1,.23.55v1.14a1.69,1.69,0,0,0,0,.23,1.89,1.89,0,0,0,0,.23Zm-.85-.18a.93.93,0,0,0,.51-.14.64.64,0,0,0,.29-.36v-.44H58a.86.86,0,0,0-.52.15.45.45,0,0,0-.2.36.39.39,0,0,0,.13.31A.5.5,0,0,0,57.79,12.55Z"/></g><g style="isolation:isolate"><path d="M60.58,10.65l-.18,0a.59.59,0,0,0-.4.14.8.8,0,0,0-.22.37v1.59h-.25v-2.3h.22l0,.38v0a.85.85,0,0,1,.27-.34.65.65,0,0,1,.4-.11h.09l.07,0Z"/></g><g style="isolation:isolate"><path d="M60.88,11.6a1.46,1.46,0,0,1,.24-.88.74.74,0,0,1,.65-.33.82.82,0,0,1,.42.1.86.86,0,0,1,.3.3l0-.36h.2v2.31a.91.91,0,0,1-.24.68.93.93,0,0,1-.69.24,1.5,1.5,0,0,1-.35,0,1.82,1.82,0,0,1-.33-.11l.05-.22a1.45,1.45,0,0,0,.29.11,1.87,1.87,0,0,0,.34,0,.66.66,0,0,0,.51-.17.74.74,0,0,0,.17-.52v-.32a.83.83,0,0,1-.3.26.93.93,0,0,1-.42.1.77.77,0,0,1-.64-.31,1.32,1.32,0,0,1-.24-.83Zm.26,0a1.21,1.21,0,0,0,.17.67.57.57,0,0,0,.5.24.68.68,0,0,0,.41-.11.7.7,0,0,0,.26-.3V11a.84.84,0,0,0-.25-.31.69.69,0,0,0-.41-.12.56.56,0,0,0-.51.27,1.42,1.42,0,0,0-.17.72Z"/><path d="M64.86,12.73c0-.08,0-.15,0-.21s0-.12,0-.18a.9.9,0,0,1-.33.31,1,1,0,0,1-.49.13.77.77,0,0,1-.53-.18.7.7,0,0,1-.19-.49.57.57,0,0,1,.27-.5,1.19,1.19,0,0,1,.71-.2h.56v-.28a.53.53,0,0,0-.15-.39.67.67,0,0,0-.45-.14.64.64,0,0,0-.42.13.4.4,0,0,0-.16.32h-.24a.55.55,0,0,1,.22-.46.94.94,0,0,1,.62-.19.93.93,0,0,1,.61.19.69.69,0,0,1,.23.55v1.14a1.69,1.69,0,0,0,0,.23,1,1,0,0,0,0,.23ZM64,12.55a.93.93,0,0,0,.51-.14.68.68,0,0,0,.29-.36v-.44h-.57a.85.85,0,0,0-.51.15.45.45,0,0,0-.2.36.39.39,0,0,0,.13.31A.48.48,0,0,0,64,12.55Z"/><path d="M66.8,10.65l-.18,0a.59.59,0,0,0-.4.14.72.72,0,0,0-.22.37v1.59h-.25v-2.3H66l0,.38v0a.85.85,0,0,1,.27-.34.65.65,0,0,1,.4-.11h.09l.07,0Z"/></g></g></svg>