<?xml version="1.0" encoding="utf-8"?>
<!-- Generator: Adobe Illustrator 23.0.3, SVG Export Plug-In . SVG Version: 6.00 Build 0)  -->
<svg version="1.1" id="Capa_1" xmlns="http://www.w3.org/2000/svg" xmlns:xlink="http://www.w3.org/1999/xlink" x="0px" y="0px"
	 viewBox="0 0 112.5 22.1" style="enable-background:new 0 0 112.5 22.1;" xml:space="preserve">
<style type="text/css">
	.st0{fill:#ECCC62;}
	.st1{enable-background:new    ;}
</style>
<title>buttondescgar</title>
<path class="st0" d="M35.1,6.4h45.5c2.1,0,3.9,1.7,3.9,3.9v1.7c0,2.1-1.7,3.9-3.9,3.9H35.1c-2.1,0-3.9-1.7-3.9-3.9v-1.7
	C31.2,8.2,32.9,6.4,35.1,6.4z"/>
<g class="st1">
	<path d="M47.6,12.7V9.6h0.9c0.4,0,0.7,0.1,0.9,0.4c0.2,0.3,0.4,0.6,0.4,1v0.4c0,0.4-0.1,0.7-0.4,1s-0.6,0.4-0.9,0.4H47.6z
		 M47.9,9.8v2.7h0.7c0.3,0,0.6-0.1,0.8-0.3c0.2-0.2,0.3-0.5,0.3-0.8V11c0-0.3-0.1-0.6-0.3-0.8c-0.2-0.2-0.5-0.3-0.8-0.3H47.9z"/>
	<path d="M51.4,12.8c-0.3,0-0.5-0.1-0.7-0.3c-0.2-0.2-0.3-0.5-0.3-0.8v-0.1c0-0.3,0.1-0.6,0.3-0.8s0.4-0.3,0.7-0.3
		c0.3,0,0.5,0.1,0.6,0.3c0.2,0.2,0.2,0.4,0.2,0.7v0.2h-1.6v0.1c0,0.3,0.1,0.5,0.2,0.7c0.1,0.2,0.3,0.3,0.6,0.3c0.1,0,0.3,0,0.4-0.1
		c0.1,0,0.2-0.1,0.3-0.2l0.1,0.2c-0.1,0.1-0.2,0.2-0.3,0.2C51.7,12.7,51.5,12.8,51.4,12.8z M51.3,10.6c-0.2,0-0.4,0.1-0.5,0.2
		c-0.1,0.1-0.2,0.3-0.2,0.5l0,0H52v-0.1c0-0.2-0.1-0.4-0.2-0.5C51.7,10.7,51.5,10.6,51.3,10.6z"/>
	<path d="M54.1,12.1c0-0.1,0-0.2-0.1-0.3c-0.1-0.1-0.2-0.1-0.5-0.2c-0.3-0.1-0.5-0.1-0.6-0.2c-0.1-0.1-0.2-0.2-0.2-0.4
		c0-0.2,0.1-0.3,0.2-0.4c0.1-0.1,0.3-0.2,0.6-0.2c0.3,0,0.5,0.1,0.6,0.2s0.2,0.3,0.2,0.5l0,0h-0.2c0-0.1-0.1-0.2-0.2-0.3
		s-0.3-0.1-0.4-0.1c-0.2,0-0.3,0-0.4,0.1s-0.1,0.2-0.1,0.3c0,0.1,0,0.2,0.1,0.3c0.1,0.1,0.2,0.1,0.5,0.2c0.3,0.1,0.5,0.1,0.6,0.2
		c0.1,0.1,0.2,0.3,0.2,0.4c0,0.2-0.1,0.3-0.2,0.5c-0.2,0.1-0.4,0.2-0.6,0.2c-0.3,0-0.5-0.1-0.7-0.2c-0.2-0.1-0.2-0.3-0.2-0.5l0,0
		h0.2c0,0.2,0.1,0.3,0.2,0.4c0.1,0.1,0.3,0.1,0.4,0.1c0.2,0,0.3,0,0.4-0.1C54,12.4,54.1,12.3,54.1,12.1z"/>
	<path d="M55.8,12.6c0.2,0,0.3,0,0.4-0.1c0.1-0.1,0.2-0.2,0.2-0.4h0.2l0,0c0,0.2-0.1,0.4-0.3,0.5c-0.2,0.1-0.4,0.2-0.6,0.2
		c-0.3,0-0.5-0.1-0.7-0.3s-0.3-0.5-0.3-0.8v-0.1c0-0.3,0.1-0.6,0.3-0.8c0.2-0.2,0.4-0.3,0.7-0.3c0.2,0,0.5,0.1,0.6,0.2
		c0.2,0.1,0.2,0.3,0.2,0.6l0,0h-0.2c0-0.2-0.1-0.3-0.2-0.4c-0.1-0.1-0.3-0.2-0.4-0.2c-0.2,0-0.4,0.1-0.5,0.3
		c-0.1,0.2-0.2,0.4-0.2,0.7v0.1c0,0.3,0.1,0.5,0.2,0.7C55.4,12.5,55.5,12.6,55.8,12.6z"/>
	<path d="M58.6,12.7c0-0.1,0-0.2,0-0.2s0-0.1,0-0.2c-0.1,0.1-0.2,0.2-0.3,0.3s-0.3,0.1-0.5,0.1c-0.2,0-0.4-0.1-0.5-0.2
		c-0.1-0.1-0.2-0.3-0.2-0.5c0-0.2,0.1-0.4,0.3-0.5c0.2-0.1,0.4-0.2,0.7-0.2h0.6v-0.3c0-0.2-0.1-0.3-0.2-0.4s-0.3-0.1-0.4-0.1
		c-0.2,0-0.3,0-0.4,0.1c-0.1,0.1-0.2,0.2-0.2,0.3h-0.2l0,0c0-0.2,0.1-0.3,0.2-0.5c0.2-0.1,0.4-0.2,0.6-0.2s0.5,0.1,0.6,0.2
		s0.2,0.3,0.2,0.6v1.1c0,0.1,0,0.2,0,0.2c0,0.1,0,0.2,0,0.2H58.6z M57.8,12.5c0.2,0,0.4,0,0.5-0.1c0.1-0.1,0.2-0.2,0.3-0.4v-0.4H58
		c-0.2,0-0.4,0-0.5,0.1s-0.2,0.2-0.2,0.4c0,0.1,0,0.2,0.1,0.3S57.6,12.5,57.8,12.5z"/>
</g>
<g class="st1">
	<path d="M60.6,10.6l-0.2,0c-0.2,0-0.3,0-0.4,0.1s-0.2,0.2-0.2,0.4v1.6h-0.3v-2.3h0.2l0,0.4v0c0.1-0.1,0.2-0.3,0.3-0.3
		c0.1-0.1,0.2-0.1,0.4-0.1c0,0,0.1,0,0.1,0s0.1,0,0.1,0L60.6,10.6z"/>
</g>
<g class="st1">
	<path d="M60.9,11.6c0-0.4,0.1-0.7,0.2-0.9c0.2-0.2,0.4-0.3,0.7-0.3c0.2,0,0.3,0,0.4,0.1c0.1,0.1,0.2,0.2,0.3,0.3l0-0.4h0.2v2.3
		c0,0.3-0.1,0.5-0.2,0.7c-0.2,0.2-0.4,0.2-0.7,0.2c-0.1,0-0.2,0-0.4,0c-0.1,0-0.2-0.1-0.3-0.1l0-0.2c0.1,0,0.2,0.1,0.3,0.1
		c0.1,0,0.2,0,0.3,0c0.2,0,0.4-0.1,0.5-0.2c0.1-0.1,0.2-0.3,0.2-0.5v-0.3c-0.1,0.1-0.2,0.2-0.3,0.3c-0.1,0.1-0.3,0.1-0.4,0.1
		c-0.3,0-0.5-0.1-0.6-0.3C61,12.3,60.9,12,60.9,11.6L60.9,11.6z M61.1,11.6c0,0.3,0.1,0.5,0.2,0.7c0.1,0.2,0.3,0.2,0.5,0.2
		c0.2,0,0.3,0,0.4-0.1c0.1-0.1,0.2-0.2,0.3-0.3V11c-0.1-0.1-0.1-0.2-0.2-0.3c-0.1-0.1-0.2-0.1-0.4-0.1c-0.2,0-0.4,0.1-0.5,0.3
		C61.2,11.1,61.1,11.3,61.1,11.6L61.1,11.6z"/>
	<path d="M64.9,12.7c0-0.1,0-0.2,0-0.2s0-0.1,0-0.2c-0.1,0.1-0.2,0.2-0.3,0.3s-0.3,0.1-0.5,0.1c-0.2,0-0.4-0.1-0.5-0.2
		c-0.1-0.1-0.2-0.3-0.2-0.5c0-0.2,0.1-0.4,0.3-0.5c0.2-0.1,0.4-0.2,0.7-0.2h0.6v-0.3c0-0.2-0.1-0.3-0.2-0.4s-0.3-0.1-0.4-0.1
		c-0.2,0-0.3,0-0.4,0.1c-0.1,0.1-0.2,0.2-0.2,0.3h-0.2l0,0c0-0.2,0.1-0.3,0.2-0.5c0.2-0.1,0.4-0.2,0.6-0.2s0.5,0.1,0.6,0.2
		s0.2,0.3,0.2,0.6v1.1c0,0.1,0,0.2,0,0.2c0,0.1,0,0.2,0,0.2H64.9z M64,12.5c0.2,0,0.4,0,0.5-0.1c0.1-0.1,0.2-0.2,0.3-0.4v-0.4h-0.6
		c-0.2,0-0.4,0-0.5,0.1s-0.2,0.2-0.2,0.4c0,0.1,0,0.2,0.1,0.3S63.9,12.5,64,12.5z"/>
	<path d="M66.8,10.6l-0.2,0c-0.2,0-0.3,0-0.4,0.1S66,11,66,11.1v1.6h-0.3v-2.3H66l0,0.4v0c0.1-0.1,0.2-0.3,0.3-0.3
		c0.1-0.1,0.2-0.1,0.4-0.1c0,0,0.1,0,0.1,0s0.1,0,0.1,0L66.8,10.6z"/>
</g>
</svg>
