<svg xmlns="http://www.w3.org/2000/svg" viewBox="0 0 300 113"><title>playsotre</title><rect x="2.66" y="11.96" width="291.21" height="88.56" rx="11.26"/><g style="isolation:isolate"><g style="isolation:isolate"><path d="M92.59,37.67H85.05l-1.54,3.54H81.83L88,27.37h1.64l6.19,13.84H94.15ZM92,36.21l-3.14-7.12-3.1,7.12Z" style="fill:#fff"/></g><g style="isolation:isolate"><path d="M97.29,30.81l3.32,8.84,3.31-8.84h1.56l-4.1,10.4h-1.6l-4.13-10.4Z" style="fill:#fff"/></g><g style="isolation:isolate"><path d="M113.51,41.21V39.59a4.5,4.5,0,0,1-3.82,1.68c-2.16,0-3.54-1.36-3.54-3.14s1.44-3,3.89-3h3.43v-.65c0-1.53-1-2.46-2.79-2.46a5.64,5.64,0,0,0-3.3,1.21l-.66-1.09a7,7,0,0,1,4.25-1.4c2.57,0,4,1.36,4,3.58l0,6.88Zm0-3.58V36.37h-3.25c-1.74,0-2.65.53-2.65,1.7S108.52,40,110,40A3.35,3.35,0,0,0,113.49,37.63Z" style="fill:#fff"/><path d="M120.21,27.82a1,1,0,1,1-2,0,1,1,0,1,1,2,0Zm-.24,3v10.4h-1.52V30.81Z" style="fill:#fff"/><path d="M125.37,26.54V41.21h-1.55V26.54Z" style="fill:#fff"/><path d="M135.69,41.21V39.59a4.49,4.49,0,0,1-3.82,1.68c-2.15,0-3.54-1.36-3.54-3.14s1.44-3,3.9-3h3.42v-.65c0-1.53-1-2.46-2.79-2.46a5.64,5.64,0,0,0-3.3,1.21l-.66-1.09a7,7,0,0,1,4.26-1.4c2.57,0,4,1.36,4,3.58l0,6.88Zm0-3.58V36.37h-3.25c-1.74,0-2.65.53-2.65,1.7s.93,1.91,2.4,1.91A3.35,3.35,0,0,0,135.67,37.63Z" style="fill:#fff"/><path d="M151.29,36c0,3.08-2,5.24-5,5.24a4.36,4.36,0,0,1-4-2.29v2.23h-1.54V26.54h1.54V33a4.34,4.34,0,0,1,4-2.29A4.93,4.93,0,0,1,151.29,36Zm-1.57,0a3.73,3.73,0,1,0-7.45,0,3.73,3.73,0,1,0,7.45,0Z" style="fill:#fff"/><path d="M155.63,26.54V41.21h-1.54V26.54Z" style="fill:#fff"/><path d="M168.47,36.58H160a3.68,3.68,0,0,0,3.78,3.4A4.35,4.35,0,0,0,167,38.66l.85.89a5.5,5.5,0,0,1-4.19,1.72A5,5,0,0,1,158.44,36a5,5,0,0,1,5.16-5.26C167,30.75,168.63,33.06,168.47,36.58Zm-1.39-1.22A3.29,3.29,0,0,0,163.6,32,3.52,3.52,0,0,0,160,35.36Z" style="fill:#fff"/><path d="M186.56,36A5.28,5.28,0,0,1,176,36a5.28,5.28,0,0,1,10.56,0Zm-9,0A3.74,3.74,0,1,0,185,36a3.74,3.74,0,1,0-7.47,0Z" style="fill:#fff"/><path d="M198.79,34.8v6.41h-1.54v-6a2.72,2.72,0,0,0-2.95-3,3.42,3.42,0,0,0-3.5,3.4v5.58h-1.54V30.81h1.54V33.1a4.13,4.13,0,0,1,4-2.35C197.33,30.75,198.79,32.27,198.79,34.8Z" style="fill:#fff"/><path d="M213.54,40.5a4.2,4.2,0,0,1-2.35.77c-1.52,0-2.65-.89-2.65-3v-6H207V31.12h1.51V28.4h1.52v2.72h3.3v1.21h-3.3v5.74c0,1.26.49,1.78,1.38,1.78a3.56,3.56,0,0,0,1.67-.54Z" style="fill:#fff"/><path d="M225.52,34.8v6.41H224v-6a2.72,2.72,0,0,0-2.95-3c-2.21,0-3.52,1.6-3.52,3.88v5.1H216V26.54h1.54v6.6a4.09,4.09,0,0,1,4.06-2.39C224.06,30.75,225.52,32.27,225.52,34.8Z" style="fill:#fff"/><path d="M237.94,36.58h-8.51a3.68,3.68,0,0,0,3.78,3.4,4.39,4.39,0,0,0,3.23-1.32l.85.89a5.54,5.54,0,0,1-4.2,1.72A5,5,0,0,1,227.91,36a5,5,0,0,1,5.16-5.26C236.44,30.75,238.1,33.06,237.94,36.58Zm-1.39-1.22A3.28,3.28,0,0,0,233.07,32a3.52,3.52,0,0,0-3.64,3.33Z" style="fill:#fff"/></g></g><g style="isolation:isolate"><g style="isolation:isolate"><path d="M99.36,65.61h4.53V74.5a17.16,17.16,0,0,1-9.38,3c-7,0-12.32-5.08-12.32-11.79S87.61,54,94.81,54a14.53,14.53,0,0,1,9.27,3.37l-2.93,3.73a9.72,9.72,0,0,0-6.34-2.58,7.22,7.22,0,1,0,0,14.44,10.52,10.52,0,0,0,4.52-1.26Z" style="fill:#fff"/><path d="M125.88,68.39c0,5.41-3.84,9.08-9.51,9.08s-9.55-3.67-9.55-9.08,3.83-9,9.55-9S125.88,62.94,125.88,68.39Zm-14,.06c0,2.91,1.81,4.89,4.46,4.89s4.42-2,4.42-4.89-1.82-4.88-4.42-4.88S111.91,65.55,111.91,68.45Z" style="fill:#fff"/><path d="M146.78,68.39c0,5.41-3.83,9.08-9.51,9.08s-9.55-3.67-9.55-9.08,3.83-9,9.55-9S146.78,62.94,146.78,68.39Zm-14,.06c0,2.91,1.81,4.89,4.46,4.89s4.42-2,4.42-4.89-1.82-4.88-4.42-4.88S132.81,65.55,132.81,68.45Z" style="fill:#fff"/><path d="M166.78,59.51V75.62c0,5-3.79,8.25-9.47,8.25a13.79,13.79,0,0,1-7.73-2.34L151.46,78A9.38,9.38,0,0,0,157,79.75c2.9,0,4.75-1.55,4.75-4v-2a6.27,6.27,0,0,1-5.35,2.58c-4.59,0-7.76-3.44-7.76-8.59s3.11-8.42,7.63-8.42a6.4,6.4,0,0,1,5.48,2.58V59.51Zm-5.05,8.38c0-2.74-1.68-4.62-4.16-4.62s-4.16,1.92-4.19,4.62,1.68,4.59,4.19,4.59S161.73,70.6,161.73,67.89Z" style="fill:#fff"/><path d="M176.69,52.77v24.5H171.6V52.77Z" style="fill:#fff"/><path d="M198.12,69.94H185.37A4.54,4.54,0,0,0,190,73.51a6.26,6.26,0,0,0,4.49-1.89l2.68,2.71a9.92,9.92,0,0,1-7.6,3.14c-5.68,0-9.28-3.63-9.28-9s3.74-9.11,9.15-9.11C195.64,59.34,198.55,63.47,198.12,69.94Zm-4.76-3a3.71,3.71,0,0,0-3.93-3.87c-2.24,0-3.76,1.52-4.16,3.87Z" style="fill:#fff"/><path d="M230.54,62.18c0,5.38-3.37,8.49-9.25,8.49h-4.58v6.6h-5.22V54.16h9.8C227.17,54.16,230.54,57.06,230.54,62.18Zm-4.95.17c0-2.58-1.65-3.87-4.56-3.87h-4.32v7.83H221C223.94,66.31,225.59,65,225.59,62.35Z" style="fill:#fff"/><path d="M239,52.77v24.5h-5.09V52.77Z" style="fill:#fff"/></g><g style="isolation:isolate"><path d="M254.42,77.27V75.19a6.83,6.83,0,0,1-5.58,2.31c-3.8,0-6.11-2.31-6.11-5.55s2.41-5.31,6.77-5.34h4.88v-.34c0-1.88-1.25-3-3.7-3a11.29,11.29,0,0,0-5.28,1.55l-1.58-3.5a16.65,16.65,0,0,1,8-2c4.75,0,7.5,2.37,7.53,6.37l0,11.59Zm0-6.08V69.61h-4c-1.95,0-2.91.59-2.91,2s1.06,2.25,2.77,2.25C252.4,73.87,254.09,72.71,254.38,71.19Z" style="fill:#fff"/></g><g style="isolation:isolate"><path d="M265.57,83.91a7.12,7.12,0,0,1-4.82-1.72l2.14-3.66a3.45,3.45,0,0,0,2.31,1,2.48,2.48,0,0,0,2.35-1.58l.49-1-7.36-17.4h5.25l4.66,12.21,4.19-12.21h5.08l-7.79,19.74C270.82,82.39,268.64,83.91,265.57,83.91Z" style="fill:#fff"/></g></g><path d="M72.73,55.11l-11.09-6.4-9.13,8.82,8.34,8.06,11.88-6.86a2,2,0,0,0,1-1.81A2.08,2.08,0,0,0,72.73,55.11Z" style="fill:#ffc900"/><polygon points="59.76 47.62 47.55 40.57 20.79 26.86 51.01 56.08 59.76 47.62" style="fill:#02f175"/><polygon points="21.23 87.77 47.59 73.25 58.97 66.68 51.01 58.98 21.23 87.77" style="fill:#fc3646"/><polygon points="19 28.04 18.98 87.04 49.51 57.53 19 28.04" style="fill:#00d6ff"/></svg>