<svg xmlns="http://www.w3.org/2000/svg" viewBox="0 0 300 113"><title>playsotre</title><rect x="2.66" y="11.96" width="291.21" height="88.56" rx="11.26"/><text transform="translate(81.75 41.21)" style="font-size:19.77016830444336px;fill:#fff;font-family:Montserrat-Light, Montserrat;font-weight:300;letter-spacing:-0.01896797205897931em">A<tspan x="13.82" y="0" style="letter-spacing:-0.013040480790548276em">v</tspan><tspan x="23.41" y="0" style="letter-spacing:0.00004939576057025862em">ailable on the</tspan></text><text transform="translate(81.3 77.27)" style="font-size:33.018028259277344px;fill:#fff;font-family:Montserrat-SemiBold, Montserrat;font-weight:600">Google Pl<tspan x="160.37" y="0" style="letter-spacing:-0.010026482650640439em">a</tspan><tspan x="179.71" y="0">y</tspan></text><path d="M72.73,55.11l-11.09-6.4-9.13,8.82,8.34,8.06,11.88-6.86a2,2,0,0,0,1-1.81A2.07,2.07,0,0,0,72.73,55.11Z" style="fill:#ffc900"/><polygon points="59.76 47.62 47.55 40.57 20.79 26.86 51.01 56.08 59.76 47.62" style="fill:#02f175"/><polygon points="21.23 87.77 47.59 73.25 58.97 66.68 51.01 58.98 21.23 87.77" style="fill:#fc3646"/><polygon points="19 28.04 18.98 87.04 49.51 57.53 19 28.04" style="fill:#00d6ff"/></svg>