<svg id="Capa_1" data-name="Capa 1" xmlns="http://www.w3.org/2000/svg" viewBox="0 0 124 121"><defs><style>.cls-1{fill:#eccc62;}.cls-2{fill:#fff;}</style></defs><title>webToken</title><path class="cls-1" d="M97.19,71a22,22,0,0,0-16-21.28,26,26,0,1,0-48.4,14L29.23,76.45,41.93,73a25.86,25.86,0,0,0,12,3.65A22,22,0,0,0,86.27,89.91l10.69,3-2.9-10.72A21.9,21.9,0,0,0,97.19,71ZM91.28,87.18l-5.62-1.59-.76.49a18,18,0,0,1-26.8-9.53A26,26,0,0,0,81,53.88a18,18,0,0,1,9.21,26.91l-.5.75Z"/><path class="cls-2" d="M53.21,60.75l4,0,0,4-4,0Z"/><path class="cls-2" d="M59.29,44.71A4,4,0,0,1,58,47.64L53.26,51.9l0,4.86,4,0,0-3.11,3.4-3.08a8,8,0,1,0-13.31-6l4,0a4,4,0,0,1,8,.05Z"/></svg>