<svg id="Capa_1" data-name="Capa 1" xmlns="http://www.w3.org/2000/svg" viewBox="0 0 124 121"><defs><style>.cls-1{fill:#eccc62;opacity:0.8;}.cls-2{fill:#383838;}</style></defs><title>webToken</title><circle class="cls-1" cx="61.04" cy="60.56" r="49.44"/><path class="cls-2" d="M81.1,41.55a1.28,1.28,0,0,0-1.36-.28L39.22,57.48a1.28,1.28,0,0,0-.79,1.13,1.26,1.26,0,0,0,.71,1.18l16,7.75,7.75,16a1.26,1.26,0,0,0,1.13.72h0a1.22,1.22,0,0,0,1.12-.79L81.38,42.91A1.25,1.25,0,0,0,81.1,41.55ZM42.81,58.76,75,45.9,55.81,65.07ZM63.89,79.85l-6.3-13L76.76,47.68Z"/></svg>