<svg id="Capa_1" data-name="Capa 1" xmlns="http://www.w3.org/2000/svg" viewBox="0 0 225 229"><defs><style>.cls-1{fill:#0e1111;opacity:0.05;}.cls-2{fill:#eccc62;}</style></defs><title>webToken</title><circle class="cls-1" cx="105" cy="115" r="98"/><path class="cls-2" d="M131,115.17v8.61a4.78,4.78,0,0,0,4.77,4.77h8.61a4.79,4.79,0,0,0,2.46-.69,4.79,4.79,0,0,0,2.46.69H158a4.79,4.79,0,0,0,2.46-.69,4.79,4.79,0,0,0,2.46.69h8.61a4.78,4.78,0,0,0,4.77-4.77v-8.61a4.78,4.78,0,0,0-4.77-4.77h-8.61a4.7,4.7,0,0,0-2.46.7,4.7,4.7,0,0,0-2.46-.7h-8.61a4.7,4.7,0,0,0-2.46.7,4.7,4.7,0,0,0-2.46-.7h-8.61A4.78,4.78,0,0,0,131,115.17Zm31.83-.15h8.61a.16.16,0,0,1,.16.15v8.61a.16.16,0,0,1-.16.16h-8.61a.16.16,0,0,1-.15-.16v-8.61A.15.15,0,0,1,162.87,115Zm-13.53,0H158a.15.15,0,0,1,.15.15v8.61a.16.16,0,0,1-.15.16h-8.61a.16.16,0,0,1-.16-.16v-8.61A.16.16,0,0,1,149.34,115Zm-13.69.15a.16.16,0,0,1,.16-.15h8.61a.15.15,0,0,1,.15.15v8.61a.16.16,0,0,1-.15.16h-8.61a.16.16,0,0,1-.16-.16Z"/><path class="cls-2" d="M149.66,102.72a2.31,2.31,0,0,0,3.26,0L174,82.11a2.31,2.31,0,0,0-3.23-3.3l-19.41,19-12-12.23A2.31,2.31,0,1,0,136,88.84Z"/><path class="cls-2" d="M118,76.56V58.11a2.3,2.3,0,0,0-2.31-2.31H48.06a2.31,2.31,0,0,0-2.31,2.31V76.56a2.31,2.31,0,0,0,2.31,2.31h67.66A2.3,2.3,0,0,0,118,76.56ZM79.89,60.41v2.93a2.31,2.31,0,0,1-4.61,0V60.41Zm-15.38,0v2.93a2.31,2.31,0,0,1-4.61,0V60.41Zm48.91,13.84h-63V60.41h4.92v2.93a6.92,6.92,0,1,0,13.84,0V60.41h1.54v2.93a6.92,6.92,0,0,0,13.84,0V60.41h28.91Z"/><path class="cls-2" d="M115.72,152.68a2.3,2.3,0,0,0,2.31-2.3V131.92a2.3,2.3,0,0,0-2.31-2.3H48.06a2.31,2.31,0,0,0-2.31,2.3v18.46a2.31,2.31,0,0,0,2.31,2.3ZM79.89,134.23v2.92a2.31,2.31,0,1,1-4.61,0v-2.92Zm-15.38,0v2.92a2.31,2.31,0,1,1-4.61,0v-2.92Zm-14.14,0h4.92v2.92a6.92,6.92,0,1,0,13.84,0v-2.92h1.54v2.92a6.92,6.92,0,0,0,13.84,0v-2.92h28.91v13.84h-63Z"/><path class="cls-2" d="M191.69,175.44H88.81V161.91h29.37a9.08,9.08,0,0,0,9.08-9.07V136.91a41.36,41.36,0,0,0,47.48,2.3,2.31,2.31,0,1,0-2.46-3.9,36.76,36.76,0,0,1-55.65-23.63,3.52,3.52,0,0,0-1.61-2.31l-8.29-5.13L115,99.12a3.55,3.55,0,0,0,1.61-2.31A36.76,36.76,0,0,1,152,67.49a36.75,36.75,0,0,1,27.37,62,2.31,2.31,0,0,0,3.35,3.17,41.37,41.37,0,0,0-55.42-61.1V55.65a9,9,0,0,0-.57-3.16v0l-5.22-15.92a7,7,0,0,0-6.66-4.73H66a2.31,2.31,0,0,0,0,4.61H114.8A2.38,2.38,0,0,1,117.08,38L120,46.75a8.74,8.74,0,0,0-1.78-.18H45.6a9.14,9.14,0,0,0-1.82.19L46.7,38A2.37,2.37,0,0,1,49,36.42h7.16a2.31,2.31,0,1,0,0-4.61H49a7,7,0,0,0-6.66,4.73L37,52.45a18.74,18.74,0,0,0-.5,3.2V79a9.05,9.05,0,0,0,3,6.77,9,9,0,0,0-3,6.76v23.38a9.07,9.07,0,0,0,3,6.77,9,9,0,0,0-3,6.76v10.46a2.31,2.31,0,0,0,4.61,0V129.46A4.46,4.46,0,0,1,45.6,125h71.26a41.43,41.43,0,0,0,5.78,7.73v20.11a4.46,4.46,0,0,1-4.46,4.46H45.6a4.46,4.46,0,0,1-4.46-4.46v-3a2.31,2.31,0,0,0-4.61,0v3a9.08,9.08,0,0,0,9.07,9.07H75v13.53H38.83a2.31,2.31,0,0,0-2.3,2.31V187a2.3,2.3,0,0,0,2.3,2.3H191.69A2.3,2.3,0,0,0,194,187v-9.23a2.31,2.31,0,0,0-2.31-2.31ZM102.4,107l6.75,4.17H50.37V97.32h4.92v2.92a6.92,6.92,0,1,0,13.84,0V97.32h1.54v2.92a6.92,6.92,0,0,0,13.84,0V97.32h24.64l-6.75,4.17a3.24,3.24,0,0,0,0,5.5ZM59.9,97.32h4.61v2.92a2.31,2.31,0,1,1-4.61,0Zm15.38,0h4.61v2.92a2.31,2.31,0,1,1-4.61,0ZM41.14,79V55.65a4.46,4.46,0,0,1,4.46-4.46h72.58a4.46,4.46,0,0,1,4.46,4.46V75.76a41.64,41.64,0,0,0-5.77,7.72H45.6A4.46,4.46,0,0,1,41.14,79Zm4.46,41.37a4.46,4.46,0,0,1-4.46-4.46V92.55A4.46,4.46,0,0,1,45.6,88.1h69a39.51,39.51,0,0,0-1.65,4.61H48.06A2.31,2.31,0,0,0,45.75,95v18.45a2.32,2.32,0,0,0,2.31,2.31H112.9a41.43,41.43,0,0,0,1.65,4.61Zm38.6,41.52v4.31H79.59v-4.31ZM41.14,180.06h24.6v4.61H41.14Zm29.22,4.61v-4.61h6.92a2.32,2.32,0,0,0,2.31-2.31v-6.92H84.2v6.92a2.31,2.31,0,0,0,2.31,2.31h6.92v4.61Zm119,0H98v-4.61h91.35Z"/></svg>