<svg id="Capa_1" data-name="Capa 1" xmlns="http://www.w3.org/2000/svg" viewBox="0 0 301 311"><defs><style>.cls-1{fill:#0e1111;opacity:0.05;}.cls-2{fill:#eccc62;}</style></defs><title>webToken</title><circle class="cls-1" cx="161.41" cy="165.64" r="114.26"/><path class="cls-2" d="M275.42,128.81H232.28L198.63,76.67l-14.22-21.8-9-14.22c-2.37-3.32-7.11-4.74-10.42-2.37L16.14,134.5c-3.31,2.37-4.74,7.11-2.37,10.43l62.1,95.74A6.83,6.83,0,0,0,80.61,244H82a7.66,7.66,0,0,0,4.27-1.42L91,239.72v10.43a7.49,7.49,0,0,0,7.59,7.59h176.8a7.49,7.49,0,0,0,7.58-7.59V136.4A7.49,7.49,0,0,0,275.42,128.81ZM199.1,90.89l24.65,37.92H140.8ZM20.41,141.14a.47.47,0,0,1-.47-.48L168.29,44.44h1l9,14.22L29.42,155.36ZM91,181.9l-19,12.32a3.67,3.67,0,0,0-1,4.74A3.36,3.36,0,0,0,74,200.38a2.88,2.88,0,0,0,1.9-.47L91,190.43v14.22l-8.53,5.69a3.67,3.67,0,0,0-.94,4.74,3.36,3.36,0,0,0,2.84,1.42,2.89,2.89,0,0,0,1.9-.47L91,212.71v18.48l-8.53,5.69h-.94L49.8,187.59,91,161Zm.48-45.5v16.11l-45,28.91L33.21,161l149.3-96.69,12.8,20.85L128,128.81H99.09A7.49,7.49,0,0,0,91.51,136.4ZM275.89,250.63a.46.46,0,0,1-.47.47H98.62a.46.46,0,0,1-.48-.47V191.85H275.89Zm0-65.89H98.14V160.57H275.89Zm0-30.81H98.14V136.87a.47.47,0,0,1,.48-.47h176.8c.47-.48.47,0,.47.47Z"/></svg>