<svg id="Capa_1" data-name="Capa 1" xmlns="http://www.w3.org/2000/svg" viewBox="0 0 237 226"><defs><style>.cls-1{fill:#0e1111;opacity:0.05;}.cls-2{fill:#eccc62;}</style></defs><title>webToken</title><circle class="cls-1" cx="118" cy="113" r="102"/><path class="cls-2" d="M36.82,55.3a2.82,2.82,0,1,0-2-.82A2.82,2.82,0,0,0,36.82,55.3Z"/><path class="cls-2" d="M45.8,55.3a2.82,2.82,0,1,0-2-.82A2.82,2.82,0,0,0,45.8,55.3Z"/><path class="cls-2" d="M54.78,55.3a2.8,2.8,0,1,0-2-.82A2.84,2.84,0,0,0,54.78,55.3Z"/><path class="cls-2" d="M66.75,55.3H180.49a2.81,2.81,0,1,0,0-5.61H66.75a2.81,2.81,0,1,0,0,5.61Z"/><path class="cls-2" d="M192.47,55.3h6a2.81,2.81,0,1,0,0-5.61h-6a2.81,2.81,0,1,0,0,5.61Z"/><path class="cls-2" d="M186.48,79.62H132.6a8.8,8.8,0,0,0-8.79,8.79v.19h-3.18a8.8,8.8,0,0,0-8.79,8.79v24.13h-6.36v-9.16a8.81,8.81,0,0,0-8.8-8.8H48.79a8.8,8.8,0,0,0-8.79,8.8V136.3a8.8,8.8,0,0,0,8.79,8.79H96.68a8.8,8.8,0,0,0,8.8-8.79v-9.16h6.36v24.13a8.8,8.8,0,0,0,8.79,8.79h3.18v.19A8.8,8.8,0,0,0,132.6,169h53.88a8.8,8.8,0,0,0,8.79-8.79v-6a8.8,8.8,0,0,0-8.79-8.79H132.6a8.8,8.8,0,0,0-8.79,8.79v.19h-3.18a3.18,3.18,0,0,1-3.18-3.18V127.14h6.36v.18a8.8,8.8,0,0,0,8.79,8.8h53.88a8.8,8.8,0,0,0,8.79-8.8v-6a8.8,8.8,0,0,0-8.79-8.8H132.6a8.8,8.8,0,0,0-8.79,8.8v.18h-6.36V97.39a3.18,3.18,0,0,1,3.18-3.18h3.18v.19a8.8,8.8,0,0,0,8.79,8.79h53.88a8.8,8.8,0,0,0,8.79-8.79v-6A8.8,8.8,0,0,0,186.48,79.62ZM99.86,136.3a3.18,3.18,0,0,1-3.18,3.18H48.79a3.18,3.18,0,0,1-3.18-3.18V112.36a3.18,3.18,0,0,1,3.18-3.18H96.68a3.18,3.18,0,0,1,3.18,3.18Zm29.56,18a3.19,3.19,0,0,1,3.18-3.18h53.88a3.19,3.19,0,0,1,3.18,3.18v6a3.19,3.19,0,0,1-3.18,3.18H132.6a3.19,3.19,0,0,1-3.18-3.18Zm0-32.92a3.18,3.18,0,0,1,3.18-3.18h53.88a3.18,3.18,0,0,1,3.18,3.18v6a3.18,3.18,0,0,1-3.18,3.18H132.6a3.18,3.18,0,0,1-3.18-3.18ZM189.66,94.4a3.19,3.19,0,0,1-3.18,3.18H132.6a3.19,3.19,0,0,1-3.18-3.18v-6a3.19,3.19,0,0,1,3.18-3.18h53.88a3.19,3.19,0,0,1,3.18,3.18Z"/><path class="cls-2" d="M198.45,37.71H36.82A14.8,14.8,0,0,0,22,52.49V172.22A14.8,14.8,0,0,0,36.82,187H198.45a14.8,14.8,0,0,0,14.78-14.78V52.49A14.8,14.8,0,0,0,198.45,37.71ZM36.82,43.33H198.45a9.17,9.17,0,0,1,9.17,9.16v9.17h-180V52.49A9.17,9.17,0,0,1,36.82,43.33ZM198.45,181.39H36.82a9.18,9.18,0,0,1-9.17-9.17V67.27h180v105A9.18,9.18,0,0,1,198.45,181.39Z"/></svg>