<svg id="Capa_1" data-name="Capa 1" xmlns="http://www.w3.org/2000/svg" viewBox="0 0 261 304"><defs><style>.cls-1{opacity:0.1;}.cls-2{fill:#0e1111;}</style></defs><title>webToken</title><g class="cls-1"><circle class="cls-2" cx="24.36" cy="17.87" r="9.79"/><circle class="cls-2" cx="24.36" cy="72" r="9.79"/><circle class="cls-2" cx="24.36" cy="123.82" r="9.79"/><circle class="cls-2" cx="24.36" cy="175.65" r="9.79"/><circle class="cls-2" cx="24.36" cy="227.47" r="9.79"/><circle class="cls-2" cx="24.36" cy="279.3" r="9.79"/><circle class="cls-2" cx="76.18" cy="17.87" r="9.79"/><circle class="cls-2" cx="76.18" cy="72" r="9.79"/><circle class="cls-2" cx="76.18" cy="123.82" r="9.79"/><circle class="cls-2" cx="76.18" cy="175.65" r="9.79"/><circle class="cls-2" cx="76.18" cy="227.47" r="9.79"/><circle class="cls-2" cx="76.18" cy="279.3" r="9.79"/><circle class="cls-2" cx="128.01" cy="17.87" r="9.79"/><circle class="cls-2" cx="128.01" cy="72" r="9.79"/><circle class="cls-2" cx="128.01" cy="123.82" r="9.79"/><circle class="cls-2" cx="128.01" cy="175.65" r="9.79"/><circle class="cls-2" cx="128.01" cy="227.47" r="9.79"/><circle class="cls-2" cx="128.01" cy="279.3" r="9.79"/><circle class="cls-2" cx="179.83" cy="17.87" r="9.79"/><circle class="cls-2" cx="179.83" cy="72" r="9.79"/><circle class="cls-2" cx="179.83" cy="123.82" r="9.79"/><circle class="cls-2" cx="179.83" cy="175.65" r="9.79"/><circle class="cls-2" cx="179.83" cy="227.47" r="9.79"/><circle class="cls-2" cx="179.83" cy="279.3" r="9.79"/><circle class="cls-2" cx="231.66" cy="17.87" r="9.79"/><circle class="cls-2" cx="231.66" cy="72" r="9.79"/><circle class="cls-2" cx="231.66" cy="123.82" r="9.79"/><circle class="cls-2" cx="231.66" cy="175.65" r="9.79"/><circle class="cls-2" cx="231.66" cy="227.47" r="9.79"/><circle class="cls-2" cx="231.66" cy="279.3" r="9.79"/></g></svg>